HIERARCHY
ROOT Hips
{
 OFFSET 0.000000 0.000000 0.000000
 CHANNELS 6 Xposition Yposition Zposition Yrotation Xrotation Zrotation
 JOINT Chest
 {
  OFFSET 0.000000 9.588913 -0.003946
  CHANNELS 3 Yrotation Xrotation Zrotation
  JOINT Chest2
  {
   OFFSET 0.000000 9.541882 0.008053
   CHANNELS 3 Yrotation Xrotation Zrotation
   JOINT Chest3
   {
    OFFSET 0.000000 9.501360 0.000000
    CHANNELS 3 Yrotation Xrotation Zrotation
    JOINT Chest4
    {
     OFFSET 0.000000 9.491660 0.000000
     CHANNELS 3 Yrotation Xrotation Zrotation
     JOINT Neck
     {
      OFFSET 0.000000 14.331917 0.000000
      CHANNELS 3 Yrotation Xrotation Zrotation
      JOINT Head
      {
       OFFSET 0.000000 8.884799 0.017034
       CHANNELS 3 Yrotation Xrotation Zrotation
       End Site
       {
        OFFSET 0.000000 16.896195 0.008993
       }
      }
     }
     JOINT RightCollar
     {
      OFFSET -2.923010 9.499495 0.000000
      CHANNELS 3 Yrotation Xrotation Zrotation
      JOINT RightShoulder
      {
       OFFSET -13.795216 0.000000 0.000000
       CHANNELS 3 Yrotation Xrotation Zrotation
       JOINT RightElbow
       {
        OFFSET -30.272209 0.000000 0.000000
        CHANNELS 3 Yrotation Xrotation Zrotation
        JOINT RightWrist
        {
         OFFSET -24.478199 0.000000 0.000000
         CHANNELS 3 Yrotation Xrotation Zrotation
         End Site
         {
          OFFSET -18.090752 0.000000 0.000000
         }
        }
       }
      }
     }
     JOINT LeftCollar
     {
      OFFSET 2.923010 9.499495 0.000000
      CHANNELS 3 Yrotation Xrotation Zrotation
      JOINT LeftShoulder
      {
       OFFSET 13.795216 0.000000 0.000000
       CHANNELS 3 Yrotation Xrotation Zrotation
       JOINT LeftElbow
       {
        OFFSET 30.272209 0.000000 0.000000
        CHANNELS 3 Yrotation Xrotation Zrotation
        JOINT LeftWrist
        {
         OFFSET 24.478199 0.000000 0.000000
         CHANNELS 3 Yrotation Xrotation Zrotation
         End Site
         {
          OFFSET 18.090752 0.000000 0.000000
         }
        }
       }
      }
     }
    }
   }
  }
 }
 JOINT RightHip
 {
  OFFSET -7.826875 0.019532 0.001973
  CHANNELS 3 Yrotation Xrotation Zrotation
  JOINT RightKnee
  {
   OFFSET 0.000000 -40.546152 -0.001885
   CHANNELS 3 Yrotation Xrotation Zrotation
   JOINT RightAnkle
   {
    OFFSET 0.000000 -39.417092 -0.003189
    CHANNELS 3 Yrotation Xrotation Zrotation
    JOINT RightToe
    {
     OFFSET 0.000000 -7.579396 17.243563
     CHANNELS 3 Yrotation Xrotation Zrotation
     End Site
     {
      OFFSET 0.000000 -1.500329 6.694466
     }
    }
   }
  }
 }
 JOINT LeftHip
 {
  OFFSET 7.826875 0.019532 0.001973
  CHANNELS 3 Yrotation Xrotation Zrotation
  JOINT LeftKnee
  {
   OFFSET 0.000000 -40.546152 -0.001885
   CHANNELS 3 Yrotation Xrotation Zrotation
   JOINT LeftAnkle
   {
    OFFSET 0.000000 -39.417092 -0.003189
    CHANNELS 3 Yrotation Xrotation Zrotation
    JOINT LeftToe
    {
     OFFSET 0.000000 -7.579396 17.243563
     CHANNELS 3 Yrotation Xrotation Zrotation
     End Site
     {
      OFFSET 0.000000 -1.500329 6.694466
     }
    }
   }
  }
 }
}
MOTION
Frames: 8
Frame Time: 0.008333
0.000000 87.345680 0.000000 0.000000 -5.767889 0.000000 0.000000 11.653876 0.000000 0.000000 -5.885988 0.000000 0.000000 -0.000000 0.000000 0.000000 -0.000000 0.000000 0.000000 12.528808 0.000000 0.000000 0.711711 0.000000 0.000000 -0.000000 0.000000 0.000000 -0.000000 0.000000 2.309063 -0.000000 0.000000 -2.309063 -0.000000 -0.000000 0.000000 -0.000000 0.000000 0.000000 0.000000 0.000000 -2.309063 0.000000 0.000000 2.309063 -0.000000 0.000000 0.000000 8.520374 0.000000 0.000000 1.905768 0.000000 -0.000000 -4.658254 0.000000 0.000000 -0.000000 0.000000 0.000000 8.520374 0.000000 0.000000 1.905768 0.000000 -0.000000 -4.658254 0.000000 0.000000 -0.000000 0.000000
-6.516991 88.596639 -20.361389 124.262151 -9.034590 1.367136 0.311322 3.973476 0.395195 0.183160 2.270358 0.156833 0.229967 2.837867 0.197216 0.183160 2.270358 0.156834 0.817636 27.573539 -1.991932 1.351377 4.653300 -2.374957 -2.651255 -1.562648 -4.956064 6.046009 2.831186 88.198760 1.917099 1.023715 1.968647 -0.924729 1.876425 1.058337 5.492557 -0.024923 0.555824 6.975739 -1.631115 -89.267407 -8.843986 0.792740 -3.900940 -1.345837 2.817243 -2.244233 -7.860198 9.802635 -8.401355 -1.833501 7.629215 -1.827819 7.031228 -9.033845 7.346702 0.045471 -0.270396 0.293021 3.281236 2.432444 2.871392 1.059999 7.206635 0.425790 3.160391 -2.783345 -0.734465 0.054624 -0.029893 0.139018
-6.557742 88.573830 -20.537180 124.344348 -9.127781 1.349573 0.292387 4.012127 0.365741 0.173350 2.286650 0.147779 0.217653 2.858241 0.185843 0.173350 2.286650 0.147779 0.838811 27.587300 -1.950651 1.365273 4.670131 -2.334452 -2.601477 -1.580649 -4.937730 6.263473 2.793952 88.180592 2.147688 1.365763 2.098634 -0.975723 1.904704 1.133592 5.466420 -0.104434 0.547906 6.766197 -1.699066 -89.317097 -9.008131 0.832768 -4.111895 -1.393321 2.787448 -2.222618 -7.813390 9.668145 -8.412643 -1.741515 8.168140 -1.990039 6.815001 -9.212539 7.397598 0.023624 -0.291063 0.332322 3.132537 2.600128 2.808442 1.071631 7.165372 0.327927 3.232352 -2.818621 -0.606988 0.037817 -0.030344 0.137276
-6.608821 88.548113 -20.733550 124.428281 -9.205730 1.314270 0.271005 4.042129 0.356226 0.160904 2.300881 0.136625 0.202028 2.876040 0.171827 0.160903 2.300881 0.136625 0.864607 27.602929 -1.904525 1.383154 4.689340 -2.289686 -2.538724 -1.592810 -4.915393 6.441258 2.751246 88.180763 2.385557 1.647949 2.224710 -1.025088 1.935164 1.208281 5.448317 -0.182072 0.553283 6.553401 -1.769713 -89.367383 -9.143530 0.877381 -4.300063 -1.426177 2.762229 -2.207100 -7.762441 9.521216 -8.410098 -1.650041 8.702855 -2.142457 6.555202 -9.369403 7.433261 0.037248 -0.310970 0.382865 2.965609 2.753945 2.745856 1.074005 7.132468 0.230552 3.322867 -2.869563 -0.471576 0.025849 -0.026040 0.137019
-6.670630 88.522091 -20.949623 124.522322 -9.279200 1.301248 0.239208 4.073525 0.327230 0.147031 2.312793 0.123558 0.184606 2.890941 0.155407 0.147031 2.312793 0.123558 0.892240 27.620489 -1.854546 1.402185 4.710986 -2.241110 -2.477285 -1.595137 -4.892885 6.587381 2.695392 88.197974 2.623493 1.863845 2.351019 -1.067576 1.967911 1.280946 5.437281 -0.258719 0.567186 6.329557 -1.841826 -89.413006 -9.249090 0.924020 -4.467244 -1.443151 2.744728 -2.198297 -7.730787 9.328524 -8.453862 -1.562614 9.312735 -2.303175 6.334876 -9.551017 7.496973 0.022973 -0.336836 0.416650 2.776160 2.906017 2.642563 1.068719 7.102367 0.133635 3.427300 -2.923696 -0.322050 0.018198 -0.023691 0.134798
-6.738793 88.498123 -21.176762 124.622521 -9.351673 1.294117 0.203065 4.106136 0.296751 0.133014 2.323102 0.109341 0.166995 2.903837 0.137548 0.133014 2.323102 0.109341 0.919222 27.640443 -1.802128 1.419955 4.735659 -2.189715 -2.426494 -1.586855 -4.873500 6.707876 2.625543 88.235460 2.858881 2.011588 2.475904 -1.100585 1.993619 1.348310 5.427948 -0.332524 0.579490 6.095534 -1.917965 -89.447145 -9.320214 0.972102 -4.611457 -1.449430 2.731957 -2.198198 -7.721252 9.107391 -8.516519 -1.480793 9.969196 -2.461785 6.133238 -9.733746 7.559146 0.016606 -0.368443 0.447747 2.575895 3.059279 2.520808 1.078073 7.071861 0.042174 3.521599 -2.985998 -0.163541 0.012852 -0.015012 0.130385
-6.810970 88.478472 -21.411033 124.712846 -9.426068 1.296920 0.169684 4.141967 0.260161 0.122634 2.332917 0.094127 0.153924 2.916114 0.118464 0.122634 2.332917 0.094127 0.944729 27.661470 -1.744902 1.435013 4.761576 -2.132693 -2.394563 -1.571010 -4.854806 6.803652 2.539806 88.298108 3.087142 2.094267 2.595138 -1.122435 2.000519 1.408424 5.407665 -0.406959 0.583125 5.858389 -1.998936 -89.462364 -9.356270 1.014394 -4.725654 -1.444100 2.726861 -2.211533 -7.719098 8.857074 -8.598761 -1.407406 10.675735 -2.617193 5.955615 -9.913010 7.623769 0.013256 -0.408425 0.470812 2.387622 3.218824 2.383411 1.132875 7.037845 -0.039752 3.567862 -3.058502 -0.001407 0.009465 0.003466 0.126145
-6.885564 88.464898 -21.650348 124.784800 -9.502398 1.311240 0.143074 4.182349 0.213792 0.117386 2.342962 0.077954 0.147262 2.928677 0.098214 0.117386 2.342962 0.077954 0.969194 27.681825 -1.681966 1.447624 4.786484 -2.069135 -2.382656 -1.550603 -4.834447 6.867216 2.437249 88.392250 3.305544 2.118372 2.700784 -1.130550 1.990049 1.455692 5.368292 -0.485437 0.573598 5.625549 -2.082301 -89.450909 -9.369861 1.049093 -4.806416 -1.413791 2.738962 -2.247886 -7.715481 8.577080 -8.698847 -1.350086 11.430682 -2.770889 5.806328 -10.080914 7.693192 0.005687 -0.460013 0.484057 2.224449 3.383727 2.234161 1.250085 7.002644 -0.113332 3.545264 -3.144792 0.162635 0.009026 0.033919 0.123735
